<?xml version="1.0" encoding="UTF-8"?>
<svg id="Layer_1" xmlns="http://www.w3.org/2000/svg" version="1.1" viewBox="0 0 664.1 355.8">
  <!-- Generator: Adobe Illustrator 29.5.1, SVG Export Plug-In . SVG Version: 2.1.0 Build 141)  -->
  <defs>
    <style>
      .st0 {
        fill: #fff;
      }
    </style>
  </defs>
  <path class="st0" d="M114.8,198.4h413.4c9.3.1,18.7,1.8,27.1,4.9-.5-.9-1.5-2.1-1.8-2.5-10.9-14-29.1-21.8-46.7-22.2H100.3s14.5,19.7,14.5,19.7h0Z"/>
  <path class="st0" d="M136.6,238.6h413.4c9.3.1,18.7,1.8,27.1,4.9-.5-.9-1.5-2.1-1.8-2.5-10.9-14-29.1-21.8-46.7-22.2H122.1s14.5,19.7,14.5,19.7h0Z"/>
  <g>
    <path class="st0" d="M177.3,102.4h-6.2c-1.1-5-2.6-8.6-4.4-10.9-1.8-2.3-3.9-3.7-6.1-4.2-2.3-.5-5.4-.8-9.5-.8h-16v31.6h8.4c4,0,6.6-.7,8-2,1.4-1.4,2.2-4.4,2.5-9h6.1v29.7h-6.2c-.2-3.4-.6-5.9-1.2-7.4-.6-1.5-1.6-2.5-3-3.1-1.4-.6-3.6-.9-6.4-.9h-8.1v26.6c0,3.6.7,6.3,2.1,8,1.4,1.7,4.8,2.6,10.2,2.6h1.8v6.1h-45.9v-6.1c5.4,0,9-.8,10.5-2.4,1.6-1.6,2.3-4.3,2.3-8.1v-56.2c0-2.5-.3-4.5-.8-6-.5-1.4-1.7-2.5-3.6-3.4-1.9-.8-4.7-1.2-8.5-1.2v-6.1h73.2l.7,23.2Z"/>
    <path class="st0" d="M280.4,168.6h-23.9c-.9-1-2-2.4-3.3-4.2-1.3-1.8-2.7-4-4.3-6.5-1.5-2.5-2.8-4.5-3.8-6.2l-6.1-10c-2.7-4.5-4.8-7.5-6.2-9.2-1.4-1.6-3-2.7-4.7-3.2-1.8-.5-4.8-.7-9.1-.7h-3.4v23.3c0,2.5.3,4.4.8,5.9.5,1.5,1.8,2.6,3.7,3.4,2,.8,4.8,1.2,8.5,1.2v6.1h-44.8v-6.1c5.4,0,9-.8,10.5-2.4,1.6-1.6,2.3-4.3,2.3-8.2v-56.4c0-3.8-.8-6.5-2.3-8.1-1.5-1.6-5-2.4-10.6-2.4v-6.2l20.7-.7c1.6,0,3.4-.2,5.4-.2,2,0,3.9,0,5.7,0s3.6,0,6.8.1c4.4.1,8.6.4,12.5.8,3.9.4,6.9.9,9.2,1.5,3.3.8,6.4,2.2,9.4,4.2,3,1.9,5.4,4.5,7.3,7.6,1.9,3.2,2.8,6.8,2.8,11s-.6,5.9-1.9,8.7c-1.3,2.8-3.4,5.3-6.3,7.5-2.9,2.2-6.7,3.9-11.4,5.2,3.2,1.9,5.9,4.2,8.2,7,2.2,2.8,5.8,7.9,10.5,15.4,2.8,4.3,5.1,7.5,6.9,9.7,1.8,2.2,3.5,3.6,5,4.4,1.5.8,3.4,1.3,5.8,1.5v6.1ZM243.4,103c0-7.1-2.2-11.8-6.5-14.2-4.3-2.3-10-3.5-17-3.5s-1.7,0-2.3,0c-.5,0-1.2,0-1.9,0v35.9h4.2c6.6,0,12.2-1.1,16.7-3.2,4.5-2.2,6.8-7.2,6.8-15.1Z"/>
    <path class="st0" d="M378.2,124.7c0,6.5-1.1,12.3-3.3,17.5-2.2,5.2-5,9.5-8.5,13-3.5,3.5-7.2,6.1-11.1,7.8-8.3,3.7-18.6,5.5-30.7,5.5h-40.8v-6.1c3.8,0,6.6-.4,8.6-1.1,1.9-.7,3.2-1.8,3.8-3.3.6-1.5.9-3.5.9-6.2v-56.4c0-3.9-.8-6.6-2.4-8.2s-5.2-2.4-10.9-2.4v-6.2l19.2-.4c.7,0,3.3,0,8-.1,4.7,0,7.4-.1,8.2-.1,7.3,0,13.6.4,18.7,1.2,5.1.8,9.8,2.1,14.1,3.8,3.9,1.6,7.5,3.8,10.8,6.6,3.3,2.8,6.1,6.1,8.3,9.7,2.3,3.6,4,7.6,5.2,11.8,1.2,4.3,1.8,8.7,1.8,13.4ZM356.8,124.3c0-9.3-1.8-17-5.3-23.3-3.5-6.3-8.3-10.6-14.4-13-2.6-1.1-5.4-1.7-8.4-2-3-.3-7.2-.4-12.8-.4v62.8c0,3.6.2,6.2.5,7.9.4,1.6,1.4,2.9,3.1,3.8,1.7.9,4.4,1.3,8,1.3,10.7,0,18.2-3.7,22.6-11.2,4.4-7.5,6.6-16.1,6.6-25.8Z"/>
    <path class="st0" d="M512.1,168.6h-44.8v-6.1c3.9,0,6.7-.4,8.5-1.2,1.8-.8,3-1.9,3.5-3.4.5-1.5.8-3.5.8-6v-56l-33.8,72.6h-4l-34.2-72.6v53.2c0,2.8,0,5,.3,6.5.2,1.5.7,2.8,1.5,3.8.8,1.1,2.1,1.8,3.9,2.3,1.8.5,4.2.8,7.3.8v6.1h-33.1v-6.1c3.2,0,5.6-.3,7.3-.8,1.7-.5,3-1.3,3.8-2.4s1.3-2.3,1.5-3.8c.2-1.5.3-3.6.3-6.4v-50.6c0-3.8-.2-6.5-.6-8.2-.4-1.7-1.5-2.9-3.3-3.8-1.8-.9-4.8-1.3-9-1.3v-6.1h32.7l29.7,63.1,29.7-63.1h32v6.1c-5.5,0-9,.8-10.6,2.4-1.6,1.6-2.4,4.3-2.4,8.1v56.2c0,2.4.3,4.4.8,5.9.5,1.5,1.7,2.6,3.7,3.5,1.9.8,4.8,1.2,8.6,1.2v6.1Z"/>
  </g>
  <path class="st0" d="M546,158.6c0,6.4-5,11.4-11.5,11.4s-11.6-5-11.6-11.4,5.1-11.2,11.6-11.2,11.5,5,11.5,11.2ZM525.8,158.6c0,5,3.7,9,8.8,9s8.6-4,8.6-8.9-3.6-9-8.6-9-8.7,4-8.7,9ZM532.7,164.5h-2.6v-11.2c1-.2,2.5-.3,4.3-.3s3.1.3,3.9.8c.6.5,1.1,1.4,1.1,2.5s-1,2.2-2.3,2.6h0c1.1.5,1.7,1.4,2.1,2.9.3,1.7.5,2.4.8,2.8h-2.8c-.3-.4-.5-1.4-.9-2.7-.2-1.2-.9-1.8-2.3-1.8h-1.2v4.5ZM532.8,158.2h1.2c1.4,0,2.6-.5,2.6-1.6s-.8-1.7-2.4-1.7-1.2,0-1.4.1v3.2Z"/>
</svg>